<?xml version="1.0" encoding="utf-8"?>
<!-- Generator: Adobe Illustrator 21.0.0, SVG Export Plug-In . SVG Version: 6.00 Build 0)  -->
<!DOCTYPE svg PUBLIC "-//W3C//DTD SVG 1.1//EN" "http://www.w3.org/Graphics/SVG/1.1/DTD/svg11.dtd">
<svg version="1.1" id="Layer_1" xmlns="http://www.w3.org/2000/svg" xmlns:xlink="http://www.w3.org/1999/xlink" x="0px" y="0px"
	 viewBox="0 0 600 140.9" style="enable-background:new 0 0 600 140.9;" xml:space="preserve">
<style type="text/css">
	.st0{fill:#007CC2;}
	.st1{fill:#959BA1;}
	.st2{fill:#007DC2;}
</style>
<g>
	<g>
		<path class="st0" d="M89,73c-0.2-8.5-7.2-15.3-15.7-15.2C64.7,58,57.9,65,58.1,73.5c0.2,8.5,7.2,15.3,15.7,15.2
			C82.3,88.6,89.1,81.5,89,73z"/>
		<path class="st0" d="M42.5,85.7c4.8-3,12.1,0.1,16.3,6.9c4.2,6.8,3.7,14.7-1.1,17.7c-4.8,3-12.1-0.1-16.3-6.9
			C37.2,96.5,37.8,88.6,42.5,85.7z"/>
		<path class="st0" d="M27.7,103c4.1-1.7,9.6,2.3,12.3,8.8c2.7,6.6,1.6,13.3-2.5,15c-4.1,1.7-9.6-2.2-12.3-8.8
			C22.5,111.4,23.7,104.7,27.7,103z"/>
		<path class="st0" d="M14.3,116.3c2.8-1.1,7,3.1,9.4,9.4c2.3,6.3,1.9,12.2-0.9,13.2c-2.8,1.1-7.1-3.1-9.4-9.4
			C11,123.2,11.4,117.3,14.3,116.3z"/>
		<path class="st0" d="M54.2,33c5.4,1.6,8,9.1,5.8,16.7c-2.2,7.7-8.5,12.6-13.9,11c-5.4-1.6-8-9.1-5.8-16.8
			C42.5,36.3,48.8,31.4,54.2,33z"/>
		<path class="st0" d="M34.5,15.4c4.3,1.2,6.2,7.7,4.3,14.5c-1.9,6.9-6.8,11.5-11.1,10.3c-4.3-1.2-6.2-7.6-4.3-14.6
			C25.3,18.8,30.3,14.2,34.5,15.4z"/>
		<path class="st0" d="M19.6,1.9c3,0.6,4.3,6.4,2.9,13c-1.4,6.5-4.9,11.3-7.9,10.7c-2.9-0.6-4.3-6.4-2.9-13
			C13.2,6,16.7,1.3,19.6,1.9z"/>
		
			<ellipse transform="matrix(0.9998 -1.857380e-02 1.857380e-02 0.9998 -1.3142 0.6077)" class="st1" cx="32.1" cy="71.1" rx="8.5" ry="12.1"/>
		<path class="st1" d="M12.5,91.1c-1.1-6.1,1-11.6,4.7-12.3c3.7-0.6,7.5,3.8,8.6,10c1.1,6.1-1,11.6-4.7,12.3
			C17.4,101.7,13.5,97.2,12.5,91.1z"/>
		<path class="st1" d="M13.2,103.2c-1.6-5.5-5-9.3-7.6-8.5C3,95.5,2.1,100.5,3.7,106c1.6,5.5,5,9.3,7.6,8.5
			C14,113.8,14.8,108.7,13.2,103.2z"/>
		<path class="st1" d="M24.7,51c-0.1-6-3.1-10.9-6.6-10.8c-3.5,0.1-6.2,5-6.1,11c0.1,6,3,10.8,6.5,10.8C22.1,61.9,24.9,57,24.7,51z"
			/>
		<path class="st1" d="M12.1,34.9c-0.1-5.4-2.5-9.7-5.3-9.6c-2.8,0.1-5.1,4.5-5,9.8c0.1,5.4,2.5,9.7,5.3,9.6
			C10,44.7,12.2,40.3,12.1,34.9z"/>
		<g>
			<path class="st0" d="M174,55.4h-25.1v43.2h-14V55.4h-24.8V43.9H174V55.4z"/>
			<path class="st0" d="M241.5,98.7h-54.2V43.9h54.2v11.5h-40.2v10.4h35.5v10.9h-35.5v10.8h40.2V98.7z"/>
			<path class="st0" d="M325.1,98.7h-14.9l-5.4-11.1h-33.3L266,98.7h-14.5l28-54.7h17.3L325.1,98.7z M299.8,77.5l-11.5-22l-11.7,22
				H299.8z"/>
			<path class="st0" d="M383.3,98.7h-49.5V43.9h14v42.7h35.5V98.7z"/>
			<path class="st0" d="M408.8,98.7h-14V43.9h14V98.7z"/>
			<path class="st0" d="M489.5,75.8c0,18.1-8.5,23.8-33.6,23.8c-25.1,0-32.8-4.9-32.8-23.8V43.9h13.7v30.9
				c0,11.6,6.7,12.8,19.2,12.8c11.7,0,19.9-2,19.9-12.8V43.9h13.7V75.8z"/>
			<path class="st0" d="M591.1,98.7h-14.9l-6.7-42.5l-17.1,42.5h-15.9l-16.7-42.5l-6.9,42.5h-14.4l9.6-54.7h20.7l15.5,40.1
				l16.5-40.1h20.5L591.1,98.7z"/>
			<path class="st2" d="M598.2,43.5c0,2-1.6,3.6-3.7,3.6c-2.1,0-3.7-1.6-3.7-3.6c0-2,1.6-3.6,3.7-3.6
				C596.6,39.9,598.2,41.5,598.2,43.5 M591.7,43.5c0,1.6,1.2,2.9,2.8,2.9c1.6,0,2.7-1.3,2.7-2.8c0-1.6-1.2-2.9-2.8-2.9
				C592.9,40.6,591.7,41.9,591.7,43.5 M593.9,45.4h-0.8v-3.6c0.3-0.1,0.8-0.1,1.4-0.1c0.7,0,1,0.1,1.2,0.3c0.2,0.2,0.4,0.4,0.4,0.8
				c0,0.4-0.3,0.7-0.7,0.8v0c0.4,0.1,0.6,0.4,0.7,0.9c0.1,0.5,0.2,0.8,0.3,0.9h-0.9c-0.1-0.1-0.2-0.5-0.3-0.9
				c-0.1-0.4-0.3-0.6-0.7-0.6h-0.4V45.4z M593.9,43.3h0.4c0.5,0,0.8-0.2,0.8-0.5c0-0.3-0.2-0.5-0.8-0.5c-0.2,0-0.4,0-0.5,0V43.3z"/>
		</g>
	</g>
</g>
</svg>
